<svg xmlns="http://www.w3.org/2000/svg" width="105" height="35" fill="none" xmlns:v="https://vecta.io/nano"><path d="M96.368 0H8.343l-.958.002-.804.01c-.588.008-1.174.06-1.754.155a5.832 5.832 0 0 0-1.663.55A5.633 5.633 0 0 0 .17 4.83C.073 5.41.02 5.995.013 6.582L0 7.388v20.225l.013.806a11.43 11.43 0 0 0 .157 1.752 5.73 5.73 0 0 0 .547 1.666 5.45 5.45 0 0 0 1.03 1.413 5.51 5.51 0 0 0 1.417 1.031 5.862 5.862 0 0 0 1.663.552c.58.095 1.166.147 1.754.155l.804.01.958.001h88.025l.948-.002.807-.01a11.402 11.402 0 0 0 1.75-.154 5.93 5.93 0 0 0 1.67-.552 5.498 5.498 0 0 0 1.415-1.031 5.62 5.62 0 0 0 1.034-1.413 5.76 5.76 0 0 0 .541-1.666 11.83 11.83 0 0 0 .163-1.752l.003-.806.007-.957V8.344l-.007-.955-.003-.806a11.825 11.825 0 0 0-.163-1.752 5.785 5.785 0 0 0-.541-1.665 5.66 5.66 0 0 0-2.449-2.45 5.92 5.92 0 0 0-1.67-.549 11.414 11.414 0 0 0-1.75-.154l-.807-.011L96.368 0z" fill="#a6a6a6"/><path d="M7.39 34.234a34.66 34.66 0 0 1-.792-.009 11.092 11.092 0 0 1-1.636-.143 5.148 5.148 0 0 1-1.45-.48 4.732 4.732 0 0 1-1.222-.889 4.656 4.656 0 0 1-.892-1.222 5.006 5.006 0 0 1-.476-1.45 10.85 10.85 0 0 1-.145-1.64 79.782 79.782 0 0 1-.013-.8V7.39l.013-.783a10.71 10.71 0 0 1 .145-1.638 5 5 0 0 1 .475-1.454A4.87 4.87 0 0 1 4.96.92 11.013 11.013 0 0 1 6.6.776l.79-.01h89.922l.8.01c.544.007 1.088.055 1.625.143a5.164 5.164 0 0 1 1.462.48 4.894 4.894 0 0 1 2.113 2.117c.228.454.386.94.469 1.443a11.57 11.57 0 0 1 .152 1.65l.002.78.007.955v18.313l-.007.94-.003.814a11.03 11.03 0 0 1-.15 1.622 5.017 5.017 0 0 1-.472 1.461 4.809 4.809 0 0 1-.889 1.212 4.734 4.734 0 0 1-1.224.895c-.46.233-.952.395-1.46.481-.54.089-1.087.136-1.635.143l-.786.01-.948.001-88.979-.002z" fill="#000"/><path d="M21.673 17.763a4.33 4.33 0 0 1 2.062-3.633 4.434 4.434 0 0 0-3.492-1.888c-1.47-.154-2.894.88-3.643.88-.763 0-1.916-.865-3.158-.84A4.651 4.651 0 0 0 9.53 14.67c-1.693 2.93-.43 7.236 1.19 9.604.812 1.16 1.76 2.455 3 2.409 1.214-.05 1.667-.774 3.132-.774 1.451 0 1.877.774 3.142.745 1.302-.021 2.123-1.165 2.905-2.336a9.594 9.594 0 0 0 1.33-2.706 4.184 4.184 0 0 1-2.555-3.849zm-2.39-7.079a4.263 4.263 0 0 0 .975-3.054 4.337 4.337 0 0 0-2.807 1.452 4.056 4.056 0 0 0-1 2.942 3.586 3.586 0 0 0 2.832-1.34zm17.731 13.063h-4.141l-.995 2.937h-1.754l3.923-10.866h1.822l3.923 10.866h-1.784l-.994-2.937zm-3.712-1.355h3.283l-1.619-4.766h-.045l-1.62 4.766zm14.963.332c0 2.461-1.318 4.043-3.306 4.043a2.686 2.686 0 0 1-2.493-1.386h-.038v3.924h-1.626V18.762h1.574v1.318h.03a2.81 2.81 0 0 1 2.523-1.4c2.01 0 3.336 1.589 3.336 4.044zm-1.672 0c0-1.604-.829-2.659-2.093-2.659-1.243 0-2.078 1.077-2.078 2.659 0 1.596.835 2.665 2.078 2.665 1.264 0 2.093-1.047 2.093-2.665zm10.391 0c0 2.461-1.318 4.043-3.306 4.043a2.686 2.686 0 0 1-2.493-1.386h-.037v3.924h-1.626V18.762h1.574v1.318h.03a2.81 2.81 0 0 1 2.522-1.4c2.01 0 3.336 1.588 3.336 4.044zm-1.671 0c0-1.604-.83-2.659-2.094-2.659-1.242 0-2.078 1.077-2.078 2.659 0 1.596.836 2.665 2.078 2.665 1.265 0 2.094-1.047 2.094-2.665zm7.434.933c.12 1.077 1.167 1.785 2.597 1.785 1.37 0 2.357-.708 2.357-1.68 0-.843-.595-1.348-2.003-1.694l-1.408-.34c-1.995-.481-2.922-1.414-2.922-2.928 0-1.875 1.634-3.163 3.954-3.163 2.296 0 3.87 1.288 3.923 3.163h-1.642c-.098-1.085-.994-1.74-2.304-1.74s-2.206.663-2.206 1.627c0 .768.572 1.22 1.973 1.566l1.197.294c2.23.527 3.155 1.423 3.155 3.012 0 2.033-1.619 3.306-4.194 3.306-2.41 0-4.037-1.243-4.142-3.208h1.665zm10.181-6.77v1.875h1.506v1.288h-1.506v4.367c0 .679.302.995.964.995.179-.003.357-.016.535-.038v1.28c-.298.056-.6.081-.904.075-1.603 0-2.229-.602-2.229-2.139v-4.54h-1.152v-1.288h1.152v-1.875h1.634zm2.379 5.837c0-2.493 1.468-4.06 3.757-4.06 2.297 0 3.758 1.567 3.758 4.06 0 2.499-1.453 4.058-3.758 4.058s-3.757-1.56-3.757-4.058zm5.858 0c0-1.71-.783-2.72-2.1-2.72s-2.101 1.017-2.101 2.72c0 1.716.782 2.718 2.1 2.718s2.101-1.002 2.101-2.718zm2.998-3.962h1.55v1.348h.038a1.89 1.89 0 0 1 1.906-1.43 2.43 2.43 0 0 1 .557.06v1.52a2.277 2.277 0 0 0-.73-.097 1.637 1.637 0 0 0-1.695 1.822v4.7h-1.626v-7.923zm11.548 5.595c-.218 1.438-1.619 2.425-3.41 2.425-2.305 0-3.736-1.544-3.736-4.02 0-2.486 1.438-4.097 3.667-4.097 2.192 0 3.57 1.505 3.57 3.907v.557h-5.595v.099a2.064 2.064 0 0 0 2.13 2.244 1.792 1.792 0 0 0 1.83-1.115h1.544zm-5.497-2.364h3.96a1.905 1.905 0 0 0-1.942-2.01 2.005 2.005 0 0 0-2.018 2.01zM33.098 7.64a2.31 2.31 0 0 1 2.457 2.594c0 1.668-.902 2.627-2.457 2.627h-1.886V7.64h1.886zm-1.075 4.482h.984a1.643 1.643 0 0 0 1.722-1.877 1.646 1.646 0 0 0-1.722-1.868h-.984v3.745zm4.447-1.233a1.865 1.865 0 0 1 1.859-2.045 1.867 1.867 0 0 1 1.858 2.045 1.867 1.867 0 1 1-3.716 0zm2.917 0c0-.854-.384-1.354-1.057-1.354s-1.056.5-1.056 1.354c0 .86.38 1.356 1.056 1.356s1.057-.499 1.057-1.356zm5.74 1.971h-.807l-.814-2.901h-.062l-.81 2.902h-.8l-1.086-3.94h.789l.706 3.006h.058l.81-3.007h.746l.81 3.007h.061l.703-3.007h.777l-1.081 3.94zm1.995-3.94h.748v.626h.059a1.18 1.18 0 0 1 1.175-.702 1.281 1.281 0 0 1 1.364 1.466v2.55h-.778v-2.355c0-.633-.275-.948-.85-.948a.904.904 0 0 0-.94.998v2.306h-.778V8.92zm4.585-1.538h.778v5.479h-.778v-5.48zm1.859 3.507a1.866 1.866 0 1 1 3.716 0 1.868 1.868 0 1 1-3.716 0zm2.916 0c0-.854-.384-1.354-1.057-1.354s-1.056.5-1.056 1.354c0 .86.38 1.356 1.056 1.356s1.057-.499 1.057-1.356zm1.618.857c0-.709.529-1.118 1.466-1.176l1.067-.062v-.34c0-.416-.275-.65-.806-.65-.434 0-.735.159-.821.437h-.753c.08-.677.716-1.11 1.61-1.11.988 0 1.545.491 1.545 1.323v2.693h-.749v-.554h-.061a1.325 1.325 0 0 1-1.184.618 1.188 1.188 0 0 1-1.313-1.179zm2.533-.336v-.33l-.962.062c-.542.036-.788.22-.788.568 0 .355.307.56.73.56a.926.926 0 0 0 1.02-.86zm1.797-.521c0-1.245.64-2.034 1.635-2.034a1.298 1.298 0 0 1 1.208.691h.059V7.382h.777v5.479h-.745v-.623h-.062a1.367 1.367 0 0 1-1.237.688c-1.002 0-1.635-.79-1.635-2.037zm.803 0c0 .836.394 1.338 1.053 1.338s1.06-.51 1.06-1.335c0-.82-.41-1.338-1.06-1.338s-1.053.506-1.053 1.335zm6.093 0a1.866 1.866 0 1 1 3.716 0 1.866 1.866 0 1 1-3.716 0zm2.917 0c0-.854-.384-1.354-1.057-1.354s-1.057.5-1.057 1.354c0 .86.38 1.356 1.057 1.356s1.057-.499 1.057-1.356zm1.843-1.969h.748v.626h.058a1.18 1.18 0 0 1 1.176-.702 1.281 1.281 0 0 1 1.364 1.466v2.55h-.778v-2.355c0-.633-.275-.948-.85-.948a.904.904 0 0 0-.94.998v2.306h-.778V8.92zm7.74-.98v.998h.853v.655h-.853v2.026c0 .413.17.594.557.594.099 0 .198-.006.296-.018v.648a2.6 2.6 0 0 1-.423.04c-.864 0-1.209-.305-1.209-1.064V9.593h-.625v-.655h.625V7.94h.779zm1.916-.558h.77v2.172h.062a1.213 1.213 0 0 1 1.201-.706 1.298 1.298 0 0 1 1.357 1.469v2.543h-.778v-2.35c0-.63-.293-.949-.843-.949a.92.92 0 0 0-.992 1v2.3h-.777V7.383zm7.924 4.415a1.6 1.6 0 0 1-1.707 1.14 1.79 1.79 0 0 1-1.82-2.034 1.817 1.817 0 0 1 1.816-2.059c1.097 0 1.758.75 1.758 1.987v.271h-2.782v.044a1.042 1.042 0 0 0 1.05 1.128.944.944 0 0 0 .937-.477h.748zm-2.735-1.27h1.99a.95.95 0 0 0-.97-1.02 1.008 1.008 0 0 0-1.02 1.02z" fill="#fff"/></svg>